G04 ===== Begin FILE IDENTIFICATION =====*
G04 File Format:  Gerber RS274X*
G04 ===== End FILE IDENTIFICATION =====*
%FSLAX24Y24*%
%MOIN*%
%SFA1.0000B1.0000*%
%OFA0.0B0.0*%
%ADD14R,0.022008X0.017992*%
%ADD15R,0.039370X0.050000*%
%ADD16R,0.016228X0.008114*%
%ADD17C,0.015000*%
%ADD18R,0.039370X0.050009*%
%ADD19R,0.012000X0.011000*%
%ADD20R,0.039370X0.050011*%
%ADD21R,0.079025X0.039370*%
%ADD22R,0.039370X0.039370*%
%ADD23R,0.050000X0.039370*%
%ADD24R,0.017992X0.022008*%
%ADD25R,0.116750X0.039370*%
%ADD26R,0.011000X0.012000*%
%ADD27R,0.144711X0.039370*%
%ADD28R,0.039370X0.107713*%
%ADD29R,0.051109X0.039370*%
%ADD30R,0.039370X0.100000*%
%ADD31R,0.055000X0.035000*%
%ADD32R,0.149988X0.039370*%
%ADD33R,0.050011X0.039370*%
%ADD34R,0.013305X0.026610*%
%ADD35R,0.074197X0.039370*%
%ADD36R,0.013333X0.026667*%
%ADD37R,0.050151X0.039370*%
%ADD38R,0.039370X0.057129*%
%ADD39R,0.039370X0.055098*%
%ADD40R,0.102850X0.018492*%
%ADD41R,0.014173X0.012992*%
%ADD42R,0.149870X0.039370*%
%ADD43R,0.014159X0.028319*%
%ADD44R,0.149991X0.039370*%
%ADD45R,0.050016X0.039370*%
%ADD46R,0.008737X0.017474*%
%ADD47R,0.050887X0.039370*%
%ADD48R,0.039370X0.050220*%
%ADD49R,0.039370X0.144711*%
%ADD50R,0.100000X0.039370*%
%ADD51R,0.050030X0.039370*%
%ADD52R,0.039370X0.090000*%
%ADD53R,0.011566X0.023133*%
%ADD54R,0.121522X0.039370*%
%ADD55C,0.000025*%
%LNcond*%
%IPPOS*%
%LPD*%
G75*
D14*
X-4554Y-7027D03*
Y-7318D03*
D15*
Y-7658D03*
X-4551Y-8608D03*
D16*
Y-8898D03*
D17*
Y-8858D03*
D18*
X-4554Y-6687D03*
D19*
Y-6162D03*
Y-6382D03*
D20*
Y-5857D03*
G36*
G01X-4751Y-5213D02*
G01Y-5607D01*
G01X-4358D01*
G01Y-5213D01*
G01X-4751D01*
G37*
D21*
X-3562Y-5410D03*
D15*
X-4573Y-2154D03*
D22*
Y-1707D03*
D23*
X-6358D03*
X-7288D03*
D24*
X-7919D03*
X-7628D03*
D25*
X-8593D03*
D26*
X-9451D03*
X-9231D03*
D27*
X-10230D03*
D22*
X-12149D03*
D28*
Y-2442D03*
G36*
G01X-11956Y-5107D02*
G01Y-4713D01*
G01X-12350D01*
G01Y-5107D01*
G01X-11956D01*
G37*
D29*
X-11700Y-4910D03*
G36*
G01X-11445Y-4713D02*
G01Y-5107D01*
G01X-11051D01*
G01Y-4713D01*
G01X-11445D01*
G37*
D30*
X-11248Y-6603D03*
X-6448Y-10763D03*
X-6346Y-13726D03*
D31*
X-6448Y-5782D03*
Y-6428D03*
G36*
G01X-6645Y-5213D02*
G01Y-5607D01*
G01X-6251D01*
G01Y-5213D01*
G01X-6645D01*
G37*
D32*
X-7395Y-5410D03*
D33*
X-7880Y-4940D03*
D34*
X-7563D03*
D17*
X-7630D03*
D35*
X-9016Y-5360D03*
D36*
X-9453D03*
D17*
X-9387D03*
D37*
X-8896Y-4910D03*
D38*
X-10343Y-4428D03*
D19*
Y-4087D03*
Y-3867D03*
D39*
Y-3536D03*
D14*
Y-3171D03*
Y-2880D03*
D40*
X-9627Y-2599D03*
D41*
X-9042D03*
X-8821D03*
D42*
X-8001D03*
D43*
X-7181D03*
D17*
X-7252D03*
D44*
X-5501Y-5410D03*
D24*
X-12033Y-7300D03*
X-12324D03*
D45*
X-12664D03*
D46*
X-12958D03*
D17*
X-12914D03*
D47*
X-13074Y-4910D03*
D48*
X-6448Y-6854D03*
D31*
X-11248Y-5282D03*
Y-5928D03*
D29*
X-10796Y-4910D03*
D14*
X-4551Y-7977D03*
Y-8268D03*
D49*
X-4573Y-3127D03*
D50*
X-9646Y-4910D03*
G36*
G01X-10146Y-5107D02*
G01Y-4713D01*
G01X-10540D01*
G01Y-5107D01*
G01X-10146D01*
G37*
D22*
X-10343Y-2594D03*
D51*
X-11693Y-7300D03*
G36*
G01X-6251Y-7499D02*
G01X-6645D01*
G01Y-7105D01*
G01X-6251D01*
G01Y-7499D01*
G37*
D30*
X-6448Y-7999D03*
D52*
Y-8949D03*
D24*
X-6658Y-1707D03*
X-6949D03*
X-12440Y-4910D03*
X-12730D03*
X-3977Y-5410D03*
X-4268D03*
D50*
X-5355Y-13031D03*
D30*
X-4658Y-13728D03*
D50*
X-5255Y-14425D03*
G36*
G01X-4855Y-14622D02*
G01Y-14228D01*
G01X-4461D01*
G01Y-14622D01*
G01X-4855D01*
G37*
D24*
X-4371Y-14425D03*
X-4081D03*
D22*
X-4658Y-13031D03*
D53*
X-2833Y-14425D03*
D17*
X-2775D03*
D54*
X-3383D03*
G36*
G01X-6550Y-12831D02*
G01X-6156D01*
G01Y-13225D01*
G01X-6550D01*
G01Y-12831D01*
G37*
G36*
G01X-6642Y-9390D02*
G01X-6248D01*
G01Y-9784D01*
G01X-6642D01*
G01Y-9390D01*
G37*
D14*
X-1055Y-14759D03*
Y-15049D03*
D24*
X-5214Y-9585D03*
X-5505D03*
D55*
G01X-12350Y-4910D02*
G01X-12349D01*
G01Y-4913D01*
G01X-10343Y-3261D02*
G01X-10346D01*
G01Y-3260D01*
G01X-4551Y-8358D02*
G01X-4552D01*
G01Y-8355D01*
G01X-4551D01*
G01Y-8358D01*
G01X-4694Y-9336D02*
G01X-4695D01*
G01X-4785D01*
G01X-4694D02*
G01X-4550Y-8360D02*
G01Y-8358D01*
G01X-4551D01*
G01X-5890Y-8010D02*
G01X-5889D01*
G01Y-8013D01*
G01X-5890D01*
G01Y-8010D01*
G01X-4690Y-9336D02*
G01X-4694D01*
G36*
G01X-6149Y-12832D02*
G01Y-12045D01*
G01X-6543D01*
G01Y-12832D01*
G01X-6149D01*
G37*
D55*
G01X-12350Y-4910D02*
G01X-12351D01*
G01Y-4897D01*
G01X-12191D01*
G01Y-4910D01*
G01X-12189D01*
G01X-6156Y-13028D02*
G01Y-13031D01*
G01X-5996D01*
G01Y-13023D01*
G01X-6161D01*
G01Y-13028D01*
G01X-6156D01*
G36*
G01X-5843Y-12829D02*
G01X-6158Y-12831D01*
G01X-6155Y-13225D01*
G01X-5840Y-13222D01*
G01X-5843Y-12829D01*
G37*
G36*
G01X-5317Y-15958D02*
G01X-1107D01*
G01X-872Y-15722D01*
G01X-875Y-15157D01*
G01X-1268Y-15159D01*
G01X-1266Y-15564D01*
G01X-5317D01*
G01Y-15958D01*
G37*
G36*
G01X-5316Y-15566D02*
G01X-6206D01*
G01Y-14637D01*
G01X-6600D01*
G01Y-15724D01*
G01X-6364Y-15960D01*
G01X-5316D01*
G01Y-15566D01*
G37*
G36*
G01X-12061Y-1903D02*
G01X-10829D01*
G01Y-1509D01*
G01X-12061D01*
G01Y-1903D01*
G37*
G36*
G01X-4741Y-1508D02*
G01X-6134D01*
G01Y-1902D01*
G01X-4741D01*
G01Y-1508D01*
G37*
G36*
G01X-4771Y-3844D02*
G01Y-5268D01*
G01X-4377D01*
G01Y-3844D01*
G01X-4771D01*
G37*
G36*
G01X-6253Y-10276D02*
G01Y-9749D01*
G01X-6647D01*
G01Y-10276D01*
G01X-6253D01*
G37*
G36*
G01X-5601Y-9399D02*
G01X-6314D01*
G01Y-9793D01*
G01X-5601D01*
G01Y-9399D01*
G37*
G36*
G01X-861Y-14728D02*
G01Y-9643D01*
G01X-1097Y-9406D01*
G01X-5154Y-9390D01*
G01X-5156Y-9784D01*
G01X-1255Y-9799D01*
G01Y-14728D01*
G01X-861D01*
G37*
G36*
G01X-11447Y-7139D02*
G01X-11443D01*
G01Y-8245D01*
G01X-11446Y-8248D01*
G01Y-11595D01*
G01X-11210Y-11831D01*
G01X-7273Y-11832D01*
G01Y-11439D01*
G01X-11052Y-11438D01*
G01Y-8248D01*
G01X-11049Y-8245D01*
G01Y-6982D01*
G01X-11286Y-6746D01*
G01X-11447D01*
G01Y-7139D01*
G37*
G36*
G01X-12345Y-2973D02*
G01Y-4737D01*
G01X-11951D01*
G01Y-2973D01*
G01X-12345D01*
G37*
D55*
G01X-6608Y-1707D02*
G01X-6610D01*
G01Y-1710D01*
G01X-6838D01*
G01Y-1707D01*
M02*

